<svg width="16" height="30" viewBox="0 0 16 30" fill="none" xmlns="http://www.w3.org/2000/svg">
<path d="M5.54273 7.67285H10.5296C10.4243 8.84826 10.0222 9.61498 8.03617 11.202C6.12957 9.54541 5.64683 8.75497 5.54273 7.67285Z" fill="black"/>
<path d="M9.20621 19.2571C13.3755 23.1315 12.8845 28.5199 9.20621 29.9981C14.7993 28.6131 17.963 22.8031 14.4233 18.4899C14.4233 18.4899 10.7342 14.2468 6.82785 10.6643C2.92152 7.08175 2.91336 2.09413 6.82785 0C-0.396694 1.21567 -1.92333 7.51765 2.41637 12.5056C2.41637 12.5056 5.03692 15.3826 9.20621 19.2571Z" fill="black"/>
<path d="M5.98727 5.21042C6.8303 4.44321 8.69526 4.01168 10.0535 5.47896C10.8255 6.31292 11.0173 7.62715 11.0173 7.62715C12.8613 8.39777 14.8131 10.7024 15.1219 11.6517C16.0956 9.26997 15.8142 5.56259 14.2958 3.13896C13.1852 1.74157 11.8567 0.749587 10.6131 0.415353C9.36959 0.0811197 7.86716 -0.243681 6.24001 0.914041C4.61286 2.07176 4.0556 4.29317 4.85902 7.32027C5.16766 6.42047 5.29403 5.84131 5.98727 5.21042Z" fill="black"/>
<path d="M10.0973 24.8928C9.25429 25.6601 7.38933 26.0916 6.03108 24.6243C5.25909 23.7904 5.06726 22.4761 5.06726 22.4761C3.22333 21.7055 1.27148 19.4008 0.96269 18.4516C-0.0110391 20.8333 0.270407 24.5407 1.78884 26.9643C2.89939 28.3617 4.22792 29.3537 5.47146 29.6879C6.715 30.0222 8.21743 30.347 9.84458 29.1892C11.4717 28.0315 12.029 25.8101 11.2256 22.783C10.9169 23.6828 10.7906 24.262 10.0973 24.8928Z" fill="black"/>
<path d="M5.54329 22.5574C6.34878 26.2785 10.2616 25.6263 10.7603 22.5574C9.41066 22.5785 8.30524 21.4902 8.30524 20.1404V18.8748L7.92164 18.5295L7.90535 20.2556C7.89319 21.5454 6.83298 22.5786 5.54329 22.5574Z" fill="black"/>
<path d="M8.66553 16.3228C8.11375 15.7387 7.57172 15.1681 7.07799 14.6533C5.90121 13.4641 5.07519 12.7727 4.00925 11.4693C2.08215 9.3072 1.58139 8.06474 2.16778 6.21387C2.29887 8.04439 3.47233 9.24438 4.58466 10.587C5.69699 11.9296 6.48861 12.7409 7.65941 13.9244C10.3544 16.5125 11.7825 17.635 13.7913 20.4841C15.5178 22.933 14.7298 26.5849 14.4742 27.5628C14.5241 27.6462 14.4049 27.8111 14.4049 27.8111C14.4049 27.8111 14.4325 27.7227 14.4742 27.5628C14.4198 27.4717 14.1638 27.4778 13.3308 27.902C14.9959 24.1314 11.4961 19.3191 8.66553 16.3228Z" fill="white"/>
</svg>
