<svg width="43" height="80" viewBox="0 0 43 80" fill="none" xmlns="http://www.w3.org/2000/svg">
<path d="M14.7812 20.459H28.0795C27.7986 23.5934 26.7264 25.638 21.4303 29.8701C16.3461 25.4525 15.0588 23.3446 14.7812 20.459Z" fill="white"/>
<path d="M24.5498 51.3522C35.6679 61.684 34.3587 76.0531 24.5498 79.9948C39.4647 76.3016 47.9014 60.8081 38.4619 49.3063C38.4619 49.3063 28.6244 37.9914 18.2075 28.4381C7.79067 18.8847 7.76892 5.58435 18.2075 0C-1.05788 3.24179 -5.12892 20.0471 6.44362 33.3482C6.44362 33.3482 13.4317 41.0204 24.5498 51.3522Z" fill="white"/>
<path d="M15.9715 13.8991C18.2195 11.8532 23.1928 10.7025 26.8148 14.6152C28.8734 16.8391 29.385 20.3437 29.385 20.3437C34.3021 22.3987 39.507 28.5445 40.3305 31.0758C42.9271 24.7246 42.1765 14.8382 38.1274 8.37519C35.1659 4.64883 31.6232 2.00354 28.3071 1.11225C24.991 0.220958 20.9845 -0.645178 16.6454 2.44208C12.3064 5.52934 10.8204 11.4531 12.9628 19.5254C13.7858 17.1259 14.1228 15.5815 15.9715 13.8991Z" fill="white"/>
<path d="M26.9254 66.3809C24.6774 68.4268 19.7041 69.5776 16.0822 65.6648C14.0235 63.4409 13.512 59.9363 13.512 59.9363C8.59483 57.8813 3.38988 51.7356 2.56645 49.2043C-0.0301588 55.5555 0.720364 65.4418 4.76951 71.9048C7.73099 75.6312 11.2737 78.2765 14.5898 79.1678C17.9059 80.0591 21.9124 80.9252 26.2515 77.8379C30.5905 74.7507 32.0766 68.8269 29.9341 60.7547C29.1111 63.1542 28.7741 64.6986 26.9254 66.3809Z" fill="white"/>
<path d="M14.7827 60.1454C16.9307 70.0681 27.3647 68.329 28.6947 60.1454C25.0957 60.2016 22.1479 57.2995 22.1479 53.7V50.325L21.125 49.4043L21.0815 54.0072C21.0491 57.4466 18.2219 60.2017 14.7827 60.1454Z" fill="white"/>
<path d="M23.1071 43.5294C21.6357 41.9719 20.1903 40.4502 18.8737 39.0774C15.7356 35.9062 13.5329 34.0624 10.6904 30.5868C5.55143 24.8212 4.21607 21.5079 5.77979 16.5723C6.12935 21.4537 9.25857 24.6536 12.2248 28.234C15.191 31.8143 17.302 33.9778 20.4241 37.1337C27.6107 44.0352 31.4191 47.0286 36.7758 54.6263C41.3798 61.1565 39.2784 70.895 38.597 73.5028C38.7298 73.7252 38.4121 74.1648 38.4121 74.1648C38.4121 74.1648 38.4856 73.9291 38.597 73.5028C38.4519 73.2598 37.7692 73.276 35.5479 74.4073C39.988 64.3523 30.6554 51.5196 23.1071 43.5294Z" fill="black"/>
</svg>
